<?xml version="1.0" standalone="no"?>
<!DOCTYPE svg PUBLIC "-//W3C//DTD SVG 20010904//EN"
 "http://www.w3.org/TR/2001/REC-SVG-20010904/DTD/svg10.dtd">
<svg version="1.0" xmlns="http://www.w3.org/2000/svg"
 width="1176.000000pt" height="596.000000pt" viewBox="0 0 1176.000000 596.000000"
 preserveAspectRatio="xMidYMid meet">

<g transform="translate(0.000000,596.000000) scale(0.100000,-0.100000)"
fill="#000000" stroke="none">
<path d="M4550 5762 c-43 -21 -64 -62 -64 -127 0 -64 19 -98 97 -177 66 -67
86 -112 67 -149 -13 -24 -65 -26 -74 -3 -3 9 -6 29 -6 45 0 28 -2 29 -46 29
l-47 0 5 -51 c6 -63 33 -100 84 -118 84 -29 165 15 179 98 12 74 -10 126 -87
206 -71 73 -82 93 -76 141 2 24 8 30 32 32 31 4 46 -10 46 -45 0 -21 5 -23 46
-23 l47 0 -7 43 c-9 55 -30 85 -71 103 -46 19 -83 18 -125 -4z"/>
<path d="M5350 5762 c-62 -30 -70 -62 -70 -270 0 -199 8 -237 54 -267 60 -39
156 -24 192 29 10 16 19 55 22 96 l5 70 -47 0 -46 0 0 -49 c0 -27 -3 -56 -6
-65 -9 -23 -61 -21 -74 3 -6 11 -10 89 -10 181 0 92 4 170 10 181 13 24 65 26
74 3 3 -9 6 -33 6 -55 l0 -39 46 0 47 0 -6 60 c-6 72 -26 107 -72 126 -46 19
-83 18 -125 -4z"/>
<path d="M6392 5765 c-53 -24 -75 -86 -70 -200 4 -102 20 -139 65 -156 31 -12
77 -3 98 18 13 13 15 8 15 -45 0 -78 -6 -92 -39 -92 -33 0 -51 17 -51 47 0 21
-5 23 -45 23 l-46 0 7 -37 c11 -59 32 -93 69 -109 69 -29 152 -8 179 45 13 24
16 68 16 231 0 214 -5 239 -52 269 -32 20 -109 23 -146 6z m103 -175 l0 -95
-35 0 -35 0 -3 84 c-4 105 -1 113 40 109 l33 -3 0 -95z"/>
<path d="M6710 5762 c-57 -28 -71 -69 -68 -194 3 -102 4 -109 31 -135 33 -34
94 -38 126 -9 l21 19 0 -64 c0 -72 -10 -89 -51 -89 -27 0 -39 15 -39 51 0 16
-7 19 -46 19 l-47 0 6 -40 c7 -55 31 -89 75 -107 44 -18 117 -11 145 15 43 38
47 62 47 264 0 176 -2 196 -20 226 -35 58 -114 77 -180 44z m98 -84 c7 -7 12
-42 12 -88 0 -80 -9 -100 -45 -100 -36 0 -45 20 -45 100 0 80 9 100 45 100 12
0 26 -5 33 -12z"/>
<path d="M7043 5774 c-35 -8 -71 -49 -83 -95 -14 -50 1 -139 25 -159 11 -9 10
-17 -6 -45 -42 -70 -33 -194 18 -241 50 -47 154 -41 204 12 21 22 24 37 28
111 3 74 0 89 -18 114 -26 35 -26 35 -1 66 23 30 28 132 7 172 -26 52 -103 80
-174 65z m85 -96 c18 -18 15 -103 -4 -122 -18 -19 -28 -20 -55 -6 -15 8 -19
21 -19 60 0 26 3 55 6 64 7 19 55 21 72 4z m0 -230 c7 -7 12 -39 12 -74 0 -69
-12 -87 -57 -82 -27 3 -28 5 -31 71 -2 42 2 74 9 83 14 17 51 18 67 2z"/>
<path d="M4790 5490 l0 -280 50 0 50 0 0 280 0 280 -50 0 -50 0 0 -280z"/>
<path d="M4950 5490 l0 -280 40 0 40 0 1 188 1 187 51 -187 52 -188 47 0 48 0
0 280 0 280 -40 0 -39 0 -3 -157 -3 -158 -28 105 c-16 58 -35 129 -43 158
l-15 52 -55 0 -54 0 0 -280z"/>
<path d="M5600 5490 l0 -280 120 0 120 0 0 40 0 40 -75 0 -75 0 0 80 0 80 60
0 60 0 0 45 0 45 -60 0 -60 0 0 75 0 75 75 0 75 0 0 40 0 40 -120 0 -120 0 0
-280z"/>
<path d="M6160 5756 c0 -19 -47 -56 -71 -56 -15 0 -19 -8 -19 -35 0 -33 2 -35
35 -35 l35 0 0 -210 0 -210 45 0 45 0 0 280 0 280 -35 0 c-24 0 -35 -5 -35
-14z"/>
<path d="M1965 4809 c-361 -49 -574 -249 -652 -609 -17 -79 -18 -157 -18
-1175 0 -1018 1 -1096 18 -1175 69 -319 244 -512 530 -585 242 -61 536 -33
723 71 178 98 297 280 345 527 16 83 19 144 19 407 l0 310 -259 0 -260 0 -3
-317 c-3 -310 -4 -319 -27 -371 -52 -116 -180 -172 -323 -143 -131 27 -191
103 -209 261 -6 54 -9 473 -7 1082 3 889 5 998 20 1041 22 65 59 111 116 144
43 26 56 28 147 28 83 0 107 -4 140 -22 54 -28 89 -68 117 -128 22 -47 23 -64
26 -307 l4 -258 259 0 259 0 0 250 c0 204 -3 267 -19 347 -67 347 -259 546
-590 612 -77 16 -274 21 -356 10z"/>
<path d="M9550 4810 c-94 -12 -227 -52 -305 -93 -36 -19 -92 -64 -140 -112
-90 -89 -137 -169 -178 -300 -53 -170 -52 -152 -52 -1280 0 -1128 -1 -1110 52
-1280 41 -131 88 -211 178 -300 48 -48 104 -93 140 -112 249 -130 645 -133
885 -7 218 114 343 320 380 624 5 46 10 207 10 357 l0 273 -264 0 -265 0 -3
-323 -3 -323 -30 -59 c-37 -72 -92 -110 -183 -127 -115 -21 -225 15 -286 94
-57 75 -56 60 -56 1183 0 898 2 1039 15 1090 23 86 56 129 128 165 51 26 71
30 136 30 129 -1 205 -43 250 -139 25 -55 26 -61 31 -316 l5 -260 263 -3 262
-2 0 213 c0 221 -10 336 -37 447 -73 297 -266 485 -557 545 -98 20 -276 27
-376 15z"/>
<path d="M3676 4748 c-3 -18 -127 -793 -276 -1723 -149 -929 -273 -1705 -276
-1722 l-6 -33 255 0 255 0 5 32 c3 18 25 162 48 321 l43 287 335 -2 336 -3 42
-275 c22 -151 44 -294 48 -317 l6 -43 280 0 281 0 -6 27 c-3 16 -129 801 -280
1745 -151 944 -277 1722 -281 1728 -4 7 -139 10 -404 10 l-399 0 -6 -32z m509
-1464 c69 -461 128 -851 131 -866 l6 -28 -261 0 c-202 0 -261 3 -261 13 -1 17
255 1726 257 1723 2 -1 59 -380 128 -842z"/>
<path d="M5140 4525 l0 -255 285 0 285 0 2 -1497 3 -1498 278 -3 277 -2 0
1500 0 1500 285 0 285 0 0 255 0 255 -850 0 -850 0 0 -255z"/>
<path d="M7080 3025 l0 -1755 750 0 750 0 0 255 0 255 -475 0 -475 0 0 510 0
510 380 0 380 0 0 250 0 250 -380 0 -380 0 0 485 0 485 475 0 475 0 0 255 0
255 -750 0 -750 0 0 -1755z"/>
<path d="M480 890 l0 -130 5405 0 5405 0 0 130 0 130 -5405 0 -5405 0 0 -130z"/>
<path d="M540 680 c-41 -10 -67 -39 -75 -84 -4 -17 -5 -105 -3 -194 3 -159 3
-162 29 -188 31 -31 95 -42 139 -24 41 17 60 57 60 125 l0 55 -35 0 c-35 0
-35 0 -35 -44 0 -27 -6 -51 -16 -60 -19 -19 -25 -20 -47 -3 -16 11 -17 30 -15
171 3 139 5 160 21 170 28 18 52 -4 55 -53 3 -40 4 -41 38 -41 l34 0 0 56 c0
48 -4 59 -29 85 -16 16 -36 29 -44 29 -9 0 -21 2 -29 4 -7 2 -29 0 -48 -4z"/>
<path d="M2835 684 c-5 -1 -23 -5 -38 -8 -36 -8 -67 -59 -67 -110 0 -52 34
-120 76 -152 67 -51 95 -132 55 -154 -30 -16 -51 -1 -57 41 -6 36 -9 39 -40
39 -33 0 -34 -1 -34 -40 0 -79 41 -120 120 -120 52 0 98 40 107 92 11 69 -3
102 -77 183 -51 57 -70 84 -70 105 0 56 61 69 70 15 4 -26 10 -30 43 -33 36
-3 37 -2 37 30 0 45 -33 96 -67 104 -15 3 -32 7 -38 8 -5 2 -14 2 -20 0z"/>
<path d="M4411 679 c-18 -4 -43 -17 -55 -28 -20 -20 -21 -33 -24 -203 -4 -201
2 -229 51 -255 43 -22 112 -12 145 21 21 21 27 37 30 91 l4 65 -41 0 -41 0 0
-50 c0 -56 -23 -80 -54 -57 -14 11 -16 33 -14 177 l3 165 30 0 c29 0 30 -2 33
-47 l3 -48 40 0 39 0 0 48 c0 59 -29 109 -67 118 -15 3 -32 7 -38 8 -5 1 -25
-1 -44 -5z"/>
<path d="M5411 679 c-18 -4 -43 -17 -55 -28 -20 -20 -21 -33 -24 -204 -3 -155
-1 -187 13 -213 33 -62 122 -74 177 -25 29 25 32 35 36 95 l4 66 -41 0 -41 0
0 -54 c0 -44 -3 -55 -19 -59 -10 -2 -26 0 -35 5 -14 8 -16 31 -16 167 0 167 5
187 47 179 14 -2 19 -14 21 -51 l3 -47 40 0 39 0 0 48 c0 59 -29 109 -67 118
-15 3 -32 7 -38 8 -5 1 -25 -1 -44 -5z"/>
<path d="M7541 677 c-19 -7 -44 -25 -55 -40 -19 -26 -21 -41 -21 -207 0 -166
2 -181 21 -207 41 -55 147 -56 187 -1 14 18 22 48 25 88 l4 60 -41 0 -41 0 0
-50 c0 -53 -16 -72 -52 -62 -17 4 -18 15 -16 176 l3 171 24 3 c29 5 41 -12 41
-60 0 -38 0 -38 41 -38 l42 0 -6 54 c-3 29 -11 63 -18 74 -25 39 -86 57 -138
39z"/>
<path d="M7820 679 c-46 -10 -77 -48 -85 -104 -11 -69 -1 -317 13 -342 34 -62
144 -70 194 -14 l28 31 0 178 c0 158 -2 180 -20 209 -11 19 -31 35 -47 39 -15
3 -32 7 -38 8 -5 1 -26 -1 -45 -5z m64 -85 c3 -9 6 -84 6 -169 0 -163 -6 -184
-50 -170 -19 6 -20 14 -20 174 0 92 3 171 7 174 12 13 51 7 57 -9z"/>
<path d="M8398 683 c-35 -5 -76 -48 -83 -87 -4 -17 -5 -105 -3 -194 3 -160 3
-162 30 -188 31 -32 108 -43 148 -22 50 26 60 67 60 243 0 107 -4 168 -13 184
-23 46 -80 72 -139 64z m60 -85 c8 -8 12 -59 12 -164 0 -125 -3 -155 -16 -168
-19 -20 -29 -20 -48 0 -13 13 -16 43 -16 168 0 155 5 176 40 176 9 0 21 -5 28
-12z"/>
<path d="M9183 679 c-76 -16 -85 -44 -81 -262 3 -175 3 -177 29 -203 31 -31
95 -42 139 -24 41 17 60 57 60 125 l0 55 -35 0 c-35 0 -35 0 -35 -44 0 -27 -6
-51 -16 -60 -18 -19 -20 -19 -45 -6 -18 10 -19 23 -19 168 0 163 4 182 42 182
22 0 38 -29 38 -69 0 -29 2 -31 36 -31 l36 0 -4 60 c-3 44 -10 67 -25 81 -25
25 -77 38 -120 28z"/>
<path d="M9585 684 c-5 -1 -23 -5 -38 -8 -16 -4 -36 -20 -47 -39 -18 -29 -20
-51 -20 -211 l0 -178 34 -34 c49 -49 113 -49 162 0 31 31 34 39 34 95 l0 61
-40 0 -40 0 0 -54 c0 -44 -3 -55 -19 -59 -10 -2 -26 0 -35 5 -14 8 -16 31 -16
167 0 167 5 187 47 179 14 -2 19 -14 21 -51 l3 -47 40 0 39 0 0 48 c0 59 -29
109 -67 118 -15 3 -32 7 -38 8 -5 2 -14 2 -20 0z"/>
<path d="M9833 680 c-77 -17 -85 -45 -81 -263 3 -176 3 -177 30 -203 19 -20
39 -28 75 -31 64 -5 108 21 122 74 15 52 13 309 -2 352 -20 57 -79 86 -144 71z
m65 -247 c2 -166 2 -172 -18 -178 -44 -14 -50 6 -50 174 0 165 5 185 45 179
19 -3 20 -11 23 -175z"/>
<path d="M10841 679 c-18 -4 -43 -17 -55 -28 -20 -20 -21 -33 -24 -203 -2
-125 0 -190 9 -210 26 -63 125 -79 181 -29 l33 29 3 111 4 111 -56 0 -56 0 0
-35 c0 -24 5 -35 15 -35 24 0 21 -116 -3 -129 -11 -6 -24 -6 -35 0 -15 9 -17
29 -17 167 0 86 4 163 9 170 4 8 19 12 32 10 21 -3 24 -9 27 -50 l3 -48 40 0
39 0 0 48 c0 59 -29 109 -67 118 -15 3 -32 7 -38 8 -5 1 -25 -1 -44 -5z"/>
<path d="M740 430 l0 -250 105 0 105 0 0 40 0 40 -65 0 -65 0 0 70 0 70 50 0
50 0 0 35 0 35 -50 0 -50 0 0 65 0 65 65 0 65 0 0 40 0 40 -105 0 -105 0 0
-250z"/>
<path d="M995 668 c-3 -7 -4 -119 -3 -248 l3 -235 35 0 35 0 3 160 4 160 33
-120 c18 -66 38 -139 44 -162 11 -41 13 -43 51 -43 l40 0 0 250 0 250 -35 0
-35 0 -1 -137 0 -138 -37 135 -37 135 -48 3 c-32 2 -49 -1 -52 -10z"/>
<path d="M1272 643 c3 -36 5 -38 40 -41 l38 -3 2 -207 3 -207 38 -3 37 -3 0
210 0 211 40 0 40 0 0 40 0 40 -121 0 -120 0 3 -37z"/>
<path d="M1542 434 l3 -249 38 -3 37 -3 0 100 0 101 29 0 c17 0 33 -6 38 -12
4 -7 10 -51 13 -98 l5 -85 38 -3 37 -3 0 86 c0 88 -18 155 -41 155 -7 0 -2 12
12 26 21 22 24 35 24 100 0 67 -2 76 -28 101 -25 26 -35 28 -117 32 l-90 3 2
-248z m154 130 c3 -19 2 -50 -3 -67 -7 -26 -14 -33 -41 -35 l-32 -3 0 70 0 71
35 0 c31 0 35 -3 41 -36z"/>
<path d="M1846 448 c-21 -128 -38 -240 -39 -248 -1 -11 8 -15 33 -15 33 0 35
2 44 43 l9 43 46 -3 c46 -3 46 -3 51 -43 5 -39 6 -40 45 -40 34 0 40 3 38 20
-2 11 -18 120 -38 242 -19 123 -35 225 -35 228 0 3 -26 5 -59 5 l-58 0 -37
-232z m108 9 c9 -53 16 -99 16 -102 0 -3 -16 -5 -36 -5 -25 0 -35 4 -31 13 2
7 10 54 17 105 7 51 14 91 16 90 1 -2 10 -47 18 -101z"/>
<path d="M2110 430 l0 -251 103 3 102 3 0 35 0 35 -62 3 -63 3 0 209 0 210
-40 0 -40 0 0 -250z"/>
<path d="M2481 481 c-17 -109 -34 -222 -38 -250 l-6 -52 34 3 c31 3 35 7 43
46 l9 43 46 -3 c46 -3 46 -3 51 -43 5 -39 6 -40 45 -40 48 0 48 -28 -1 273
-19 117 -34 215 -34 218 0 2 -26 4 -58 4 l-59 0 -32 -199z m104 -21 c8 -52 15
-98 15 -102 0 -5 -15 -8 -33 -8 l-33 0 15 105 c8 57 16 103 18 102 1 -2 9 -45
18 -97z"/>
<path d="M3002 433 l3 -248 38 -3 37 -3 0 250 0 251 -40 0 -40 0 2 -247z"/>
<path d="M3156 453 c-45 -284 -45 -275 -3 -271 29 3 33 7 41 46 l9 43 46 -3
c46 -3 46 -3 51 -43 5 -39 6 -40 45 -40 48 0 48 -29 -1 272 -19 117 -34 215
-34 218 0 3 -26 5 -59 5 l-58 0 -37 -227z m108 4 c9 -53 16 -99 16 -102 0 -3
-15 -5 -33 -5 l-33 0 14 105 c8 58 16 104 18 102 1 -1 10 -46 18 -100z"/>
<path d="M3420 430 l0 -250 35 0 35 0 1 173 0 172 47 -170 47 -170 40 0 40 0
0 245 0 245 -35 0 -35 0 -5 -125 c-3 -69 -7 -119 -8 -111 -1 8 -16 65 -33 127
l-31 114 -49 0 -49 0 0 -250z"/>
<path d="M3804 666 c-3 -8 -4 -25 -2 -38 2 -19 10 -24 40 -26 l38 -3 2 -207 3
-207 40 0 40 0 3 207 2 207 38 3 c35 3 37 5 37 38 l0 35 -118 3 c-95 2 -118 0
-123 -12z"/>
<path d="M4080 430 l0 -250 105 0 105 0 0 40 0 40 -65 0 -65 0 0 70 0 70 50 0
50 0 0 35 0 35 -50 0 -50 0 0 65 0 65 65 0 65 0 0 40 0 40 -105 0 -105 0 0
-250z"/>
<path d="M4605 668 c-3 -7 -4 -119 -3 -248 l3 -235 40 0 40 0 3 103 3 102 39
0 40 0 0 -105 0 -105 40 0 40 0 0 250 0 250 -40 0 -40 0 0 -105 0 -105 -40 0
-39 0 -3 103 -3 102 -38 3 c-24 2 -39 -1 -42 -10z"/>
<path d="M4902 433 l3 -248 35 0 35 0 5 154 5 155 41 -155 41 -154 41 -3 42
-3 0 250 0 251 -35 0 -35 0 0 -132 c0 -72 -2 -129 -5 -126 -4 3 -21 61 -39
129 l-32 124 -52 3 -52 3 2 -248z"/>
<path d="M5202 433 l3 -248 38 -3 37 -3 0 250 0 251 -40 0 -40 0 2 -247z"/>
<path d="M5626 453 c-45 -284 -45 -275 -3 -271 29 3 33 7 41 46 l9 43 46 -3
c46 -3 46 -3 51 -43 5 -39 6 -40 45 -40 48 0 48 -29 -1 272 -19 117 -34 215
-34 218 0 3 -26 5 -59 5 l-58 0 -37 -227z m109 7 c8 -52 15 -98 15 -102 0 -5
-15 -8 -33 -8 l-33 0 14 105 c8 58 16 104 18 102 2 -2 10 -45 19 -97z"/>
<path d="M5890 430 l0 -251 103 3 102 3 3 37 3 38 -65 0 -66 0 0 210 0 210
-40 0 -40 0 0 -250z"/>
<path d="M6290 668 c0 -7 -16 -110 -35 -228 -44 -272 -44 -260 -1 -260 34 0
35 2 42 45 l6 46 47 -3 c37 -2 46 -7 49 -23 9 -62 11 -65 47 -65 18 0 36 3 38
7 4 6 -37 281 -68 461 -6 32 -6 32 -65 32 -41 0 -60 -4 -60 -12z m75 -209 c8
-52 15 -97 15 -101 0 -5 -15 -8 -33 -8 l-32 0 14 105 c8 57 17 103 19 101 2
-2 10 -46 17 -97z"/>
<path d="M6520 430 l0 -250 35 0 35 0 1 168 c0 92 3 160 7 152 3 -8 24 -82 47
-165 l40 -150 40 0 40 0 3 248 2 248 -37 -3 -38 -3 -5 -120 -5 -120 -24 90
c-47 174 -35 155 -91 155 l-50 0 0 -250z"/>
<path d="M6820 430 l0 -253 85 5 c147 10 158 29 153 275 -3 162 -3 163 -31
190 -25 26 -35 28 -117 31 l-90 4 0 -252z m154 154 c3 -9 6 -80 6 -158 0 -154
-4 -166 -52 -166 l-28 0 0 170 0 170 34 0 c22 0 36 -6 40 -16z"/>
<path d="M7214 667 c-2 -7 -3 -118 -2 -247 l3 -235 105 0 105 0 3 37 3 38 -70
0 -71 0 0 70 0 70 55 0 55 0 0 35 0 35 -55 0 -55 0 0 65 0 64 68 3 67 3 3 38
3 37 -106 0 c-76 0 -107 -4 -111 -13z"/>
<path d="M8020 430 l0 -250 35 0 35 0 1 168 1 167 34 -125 c61 -217 55 -205
100 -205 l39 0 0 245 0 245 -35 0 -35 0 -5 -125 -5 -125 -34 128 -33 127 -49
0 -49 0 0 -250z"/>
<path d="M8595 668 c-3 -7 -4 -119 -3 -248 l3 -235 35 0 35 0 5 135 5 135 18
-120 c26 -165 22 -157 65 -153 l37 3 20 135 20 135 5 -135 5 -135 38 -3 37 -3
0 250 0 251 -54 0 c-63 0 -55 16 -81 -170 -9 -63 -19 -122 -22 -130 -3 -8 -18
55 -32 140 l-26 155 -53 3 c-36 2 -54 -1 -57 -10z"/>
<path d="M8972 433 l3 -248 38 -3 37 -3 0 250 0 251 -40 0 -40 0 2 -247z"/>
<path d="M10032 433 l3 -248 103 -3 102 -3 0 41 0 40 -65 0 -65 0 0 210 0 210
-40 0 -40 0 2 -247z"/>
<path d="M10270 430 l0 -251 103 3 102 3 0 35 0 35 -62 3 -63 3 0 209 0 210
-40 0 -40 0 0 -250z"/>
<path d="M10510 430 l0 -250 105 0 105 0 0 40 0 40 -65 0 -65 0 0 70 0 70 50
0 50 0 0 35 0 35 -50 0 -50 0 0 65 0 65 65 0 65 0 0 40 0 40 -105 0 -105 0 0
-250z"/>
<path d="M11040 430 l0 -250 105 0 105 0 0 40 0 40 -65 0 -65 0 0 70 0 70 50
0 50 0 0 35 0 35 -50 0 -50 0 0 65 0 65 65 0 65 0 0 40 0 40 -105 0 -105 0 0
-250z"/>
</g>
</svg>
